<svg xmlns="http://www.w3.org/2000/svg" viewBox="0 0 20 20"><defs><style>.cls-1{fill:#227fbb;}.cls-2{fill:#fff;}.cls-2,.cls-3{fill-rule:evenodd;}.cls-3{fill:#e94b35;}</style></defs><g id="Layer_2" data-name="Layer 2"><g id="Layer_1-2" data-name="Layer 1"><circle class="cls-1" cx="10" cy="10" r="10"/><path class="cls-2" d="M4.21,1.85,10,7.64l5.79-5.79a9.8,9.8,0,0,1,2.36,2.36L12.36,10l5.79,5.79a9.8,9.8,0,0,1-2.36,2.36L10,12.36,4.21,18.15a9.8,9.8,0,0,1-2.36-2.36L7.64,10,1.85,4.21A9.8,9.8,0,0,1,4.21,1.85Z"/><path class="cls-3" d="M16.13,2.1a9.29,9.29,0,0,1,.94.83L10.59,9.41l-.88-.88Zm-13.2.83L9.41,9.41l-.88.88L2.1,3.87A9.29,9.29,0,0,1,2.93,2.93Zm15,13.2a9.29,9.29,0,0,1-.83.94l-6.48-6.48.88-.88Zm-14,1.77a9.29,9.29,0,0,1-.94-.83l6.48-6.48.88.88Z"/><path class="cls-2" d="M12.5.32V7.5h7.18a9.93,9.93,0,0,1,0,5H12.5v7.18a9.93,9.93,0,0,1-5,0V12.5H.32a9.93,9.93,0,0,1,0-5H7.5V.32a9.93,9.93,0,0,1,5,0Z"/><path class="cls-3" d="M11.67.14V8.33h8.19a10,10,0,0,1,0,3.34H11.67v8.19a10,10,0,0,1-3.34,0V11.67H.14a10,10,0,0,1,0-3.34H8.33V.14a10,10,0,0,1,3.34,0Z"/></g></g></svg>