<svg xmlns="http://www.w3.org/2000/svg" viewBox="0 0 20 20"><defs><style>.cls-1{fill:#f2c500;}.cls-1,.cls-2,.cls-3{fill-rule:evenodd;}.cls-2,.cls-4{fill:#e94b35;}.cls-3{fill:#d9d9d9;}</style></defs><g id="Layer_2" data-name="Layer 2"><g id="Layer_1-2" data-name="Layer 1"><path class="cls-1" d="M1.11,5.42H18.89a10,10,0,0,1,0,9.16H1.11a10,10,0,0,1,0-9.16Z"/><path class="cls-2" d="M18.89,5.42H1.11a10,10,0,0,1,17.78,0Z"/><path class="cls-2" d="M1.11,14.58H18.89a10,10,0,0,1-17.78,0Z"/><path class="cls-3" d="M2.5,8.33a.42.42,0,0,1,.42.42v4.58h.41v.42H1.67v-.42h.41V8.75A.42.42,0,0,1,2.5,8.33Z"/><path class="cls-3" d="M3.54,8.54H8.13v3.61c0,1.25-1,1.81-2.3,1.81s-2.29-.56-2.29-1.81Z"/><ellipse class="cls-4" cx="5.83" cy="7.29" rx="2.08" ry="1.04"/><circle class="cls-4" cx="2.5" cy="8.54" r="1"/><path class="cls-2" d="M3.75,8.75H5.83v2.08H3.75Z"/><path class="cls-1" d="M3.75,10.83H5.83v1.46a1,1,0,0,1-2.08,0Z"/><path class="cls-2" d="M5.83,10.83H7.92v1.46a1,1,0,0,1-2.09,0Z"/><path class="cls-3" d="M9.17,8.33a.41.41,0,0,1,.41.42v4.58H10v.42H8.33v-.42h.42V8.75A.42.42,0,0,1,9.17,8.33Z"/><circle class="cls-4" cx="9.17" cy="8.54" r="1"/><circle class="cls-4" cx="6.88" cy="9.79" r="1"/></g></g></svg>