<svg xmlns="http://www.w3.org/2000/svg" viewBox="0 0 20 20"><defs><style>.cls-1{fill:#fff;}.cls-2,.cls-4{fill-rule:evenodd;}.cls-3{fill:#e94b35;}.cls-4{fill:#227fbb;}</style></defs><g id="Layer_2" data-name="Layer 2"><g id="Layer_1-2" data-name="Layer 1"><circle class="cls-1" cx="10" cy="10" r="10"/><path class="cls-2" d="M2.12,6.56l2-3,.43.29-2,3ZM3,7.15l2-3,.43.3-2,3Zm.87.58,2-3L6.32,5l-2,3Z"/><path class="cls-2" d="M4.28,12l2,3-.43.29-2-3Zm-.86.58.87,1.3-.43.29L3,12.85Zm1.16,1.73.87,1.29-.43.3-.87-1.3Zm-2-1.15,2,3-.43.29-2-3Z"/><path class="cls-2" d="M15.84,3.54l.88,1.3-.44.29-.87-1.3ZM17,5.27l.87,1.29-.43.3-.88-1.3ZM15,4.12l2,3-.44.29-2-3Zm-.87.59L15,6l-.43.29L13.68,5Zm1.17,1.72.87,1.3L15.72,8l-.87-1.29Z"/><path class="cls-2" d="M13.68,15l.88-1.29L15,14l-.88,1.29Zm1.17-1.73L15.72,12l.43.29-.87,1.3Zm-.3,2.31.87-1.29.43.29L15,15.88Zm1.16-1.72.87-1.3.44.29-.88,1.3Zm-.3,2.31.87-1.3.44.29-.88,1.3Zm1.16-1.73.88-1.3.43.3L17,14.73Z"/><circle class="cls-3" cx="10" cy="10" r="4.17"/><path class="cls-4" d="M14.17,10a4.17,4.17,0,0,1-8.34,0A2.09,2.09,0,0,0,10,10a2.09,2.09,0,0,1,4.17,0Z"/></g></g></svg>