<svg xmlns="http://www.w3.org/2000/svg" viewBox="0 0 20 20"><defs><style>.cls-1,.cls-5{fill:#e94b35;}.cls-1,.cls-2,.cls-3,.cls-6,.cls-7{fill-rule:evenodd;}.cls-2{fill:#1aaf5d;}.cls-3,.cls-4{fill:#f2c500;}.cls-6{fill:#fff;}.cls-7{fill:#2c97de;}</style></defs><g id="Layer_2" data-name="Layer 2"><g id="Layer_1-2" data-name="Layer 1"><path class="cls-1" d="M6.67,19.43V.57A10,10,0,1,1,10,20,9.91,9.91,0,0,1,6.67,19.43Z"/><path class="cls-2" d="M6.67.57V19.43A10,10,0,0,1,6.67.57Z"/><path class="cls-3" d="M6.67,13.75a4.17,4.17,0,1,1,4.16-4.17A4.17,4.17,0,0,1,6.67,13.75Zm0-.83A3.34,3.34,0,1,0,3.33,9.58,3.34,3.34,0,0,0,6.67,12.92Z"/><path class="cls-4" d="M9,7.29V10a2.3,2.3,0,0,1-4.59,0V7.29Z"/><path class="cls-5" d="M4.58,7.5H8.75V10a2.09,2.09,0,0,1-4.17,0Z"/><path class="cls-6" d="M5.42,10a1.25,1.25,0,0,0,2.5,0V8.33H5.42Z"/><path class="cls-7" d="M6.46,8.75H7v.5h-.5Z"/><path class="cls-7" d="M5.83,9.58h.5v.5h-.5Z"/><path class="cls-7" d="M7.08,9.58h.5v.5h-.5Z"/><path class="cls-7" d="M6.46,10.42H7v.5h-.5Z"/><path class="cls-7" d="M6.46,9.58H7v.5h-.5Z"/></g></g></svg>