<svg xmlns="http://www.w3.org/2000/svg" viewBox="0 0 20 20"><defs><style>.cls-1{fill:#e94b35;}.cls-2{fill:#f2c500;fill-rule:evenodd;}</style></defs><g id="Layer_2" data-name="Layer 2"><g id="Layer_1-2" data-name="Layer 1"><circle class="cls-1" cx="10" cy="10" r="10"/><path class="cls-2" d="M5.21,7.29,3.37,8.57,4,6.43,2.24,5.08,4.47,5l.74-2.11L5.94,5l2.24,0L6.4,6.43l.65,2.14Z"/><path class="cls-2" d="M8.64,3.65l-.58.15.36-.48-.33-.5L8.66,3,9,2.55v.6l.55.21L9,3.54l0,.59Z"/><path class="cls-2" d="M10.58,5.25l-.25.54-.14-.58L9.6,5.13l.51-.31L10,4.24l.45.39L11,4.34l-.23.55.44.41Z"/><path class="cls-2" d="M10.36,7.45l-.54.25.27-.53-.41-.44.59.09.29-.52.1.59.58.12-.53.27.07.59Z"/><path class="cls-2" d="M8.64,9.06l-.58.16.36-.48-.33-.5.57.19L9,8v.59l.55.22L9,9l0,.59Z"/></g></g></svg>